<?xml version="1.0" encoding="UTF-8" standalone="no"?><!DOCTYPE svg PUBLIC "-//W3C//DTD SVG 1.1//EN" "http://www.w3.org/Graphics/SVG/1.1/DTD/svg11.dtd"><svg width="100%" height="100%" viewBox="0 0 1920 1080" version="1.1" xmlns="http://www.w3.org/2000/svg" xmlns:xlink="http://www.w3.org/1999/xlink" xml:space="preserve" xmlns:serif="http://www.serif.com/" style="fill-rule:evenodd;clip-rule:evenodd;stroke-linejoin:round;stroke-miterlimit:2;"><g id="Back-Clouds" serif:id="Back Clouds"><rect x="181.09" y="128.849" width="514.465" height="187.951" style="fill:none;"/><clipPath id="_clip1"><rect x="181.09" y="128.849" width="514.465" height="187.951"/></clipPath><g clip-path="url(#_clip1)"><path d="M268.398,391.064c-10.813,-0.994 -22.747,-5.037 -34.614,-12.102c-20.033,-11.151 -39.691,-39.117 -52.694,-62.346c14.026,-22.626 34.91,-49.688 55.421,-59.936c14.762,-7.919 29.425,-11.392 41.868,-10.465c23.916,-28.22 50.245,-52.766 76.318,-65.793c64.56,-34.634 128.316,-33.213 159.39,3.553c9.069,10.73 15.354,24.47 18.103,39.41c21.07,-4.382 39.617,-0.176 50.332,12.502c5.646,6.68 9.117,15.713 9.676,25.322c12.233,0.605 25.782,3.46 39.331,8.565c23.052,8.107 46.104,28.954 61.472,46.326c-15.368,17.373 -38.42,38.219 -61.472,46.327c-16.287,6.137 -32.575,9.022 -46.576,8.655c-1.574,2.9 -3.461,5.561 -5.621,7.897c-11.553,12.495 -30.935,15.729 -52.421,9.827c8.01,30.985 -0.513,63.343 -19.254,83.611c-32.682,35.346 -96.438,33.924 -159.39,-3.554c-27.955,-15.561 -55.6,-45.002 -79.869,-77.799Z" style="fill:#fff6da;fill-opacity:0.23;"/></g><rect x="1293.52" y="258.19" width="320.858" height="117.22" style="fill:none;"/><clipPath id="_clip2"><rect x="1293.52" y="258.19" width="320.858" height="117.22"/></clipPath><g clip-path="url(#_clip2)"><path d="M1316.88,405.58c-5.676,-7.43 -10.8,-15.56 -14.971,-23.012c10.08,-16.26 25.089,-35.708 39.828,-43.073c11.22,-6.019 22.361,-8.464 31.618,-7.374c7.893,-6.908 15.946,-12.657 23.96,-16.662c40.264,-21.6 80.027,-20.713 99.407,2.216c1.383,1.637 2.663,3.386 3.831,5.23c3.383,-2.801 6.813,-5.147 10.23,-6.854c19.975,-10.716 39.701,-10.276 49.315,1.099c5.479,6.483 7.674,16.517 4.852,25.932c3.137,0.801 6.317,1.801 9.498,2.999c14.377,5.056 28.754,18.058 38.338,28.893c-9.584,10.834 -23.961,23.836 -38.338,28.892c-6.382,2.405 -12.765,4.009 -18.793,4.812c-10.639,8.521 -28.857,7.335 -46.862,-3.384c-5.173,-2.88 -10.313,-7.296 -15.215,-12.553c-4.931,5.443 -11.136,10.357 -18.742,14.438c39.261,23.373 38.259,68.346 17.876,90.39c-20.383,22.044 -60.146,21.158 -99.408,-2.216c-28.913,-16.095 -57.296,-55.999 -76.424,-89.773Z" style="fill:#fff6da;fill-opacity:0.23;"/></g></g></svg>