<?xml version="1.0" encoding="UTF-8" standalone="no"?><!DOCTYPE svg PUBLIC "-//W3C//DTD SVG 1.1//EN" "http://www.w3.org/Graphics/SVG/1.1/DTD/svg11.dtd"><svg width="100%" height="100%" viewBox="0 0 1920 1080" version="1.1" xmlns="http://www.w3.org/2000/svg" xmlns:xlink="http://www.w3.org/1999/xlink" xml:space="preserve" xmlns:serif="http://www.serif.com/" style="fill-rule:evenodd;clip-rule:evenodd;stroke-linejoin:round;stroke-miterlimit:2;"><rect id="Mid-Cloud" serif:id="Mid Cloud" x="826.325" y="390.422" width="267.351" height="97.672" style="fill:none;"/><clipPath id="_clip1"><rect id="Mid-Cloud1" serif:id="Mid Cloud" x="826.325" y="390.422" width="267.351" height="97.672"/></clipPath><g clip-path="url(#_clip1)"><path d="M898.545,531.906c-9.032,5.631 -23.196,4.217 -37.206,-4.124c-12.182,-6.781 -24.136,-23.787 -32.044,-37.913c8.529,-13.759 21.23,-30.215 33.702,-36.447c13.251,-7.109 26.37,-8.326 35.211,-3.743c9.717,-10.774 20.152,-19.929 30.498,-25.099c29.374,-15.758 58.382,-15.111 72.52,1.617c2.034,2.407 3.761,5.146 5.138,8.119c14.193,-3.284 26.759,-0.644 33.926,7.835c3.925,4.645 6.231,11.042 6.327,17.774c4.463,0.731 9.125,1.975 13.786,3.732c11.98,4.213 23.959,15.046 31.945,24.074c-7.986,9.028 -19.965,19.861 -31.945,24.074c-5.092,1.919 -10.184,3.226 -15.017,3.921c0,7.394 -2.669,14.42 -7.167,19.284c-7.033,7.606 -18.536,9.923 -31.444,7.02c-1.685,5.888 -4.599,11.214 -8.474,15.405c-14.87,16.082 -43.879,15.435 -72.521,-1.617c-9.338,-5.198 -18.601,-13.801 -27.235,-23.912Z" style="fill:#fff6da;fill-opacity:0.23;"/></g></svg>