<?xml version="1.0" encoding="UTF-8" standalone="no"?><!DOCTYPE svg PUBLIC "-//W3C//DTD SVG 1.1//EN" "http://www.w3.org/Graphics/SVG/1.1/DTD/svg11.dtd"><svg width="100%" height="100%" viewBox="0 0 1920 1080" version="1.1" xmlns="http://www.w3.org/2000/svg" xmlns:xlink="http://www.w3.org/1999/xlink" xml:space="preserve" xmlns:serif="http://www.serif.com/" style="fill-rule:evenodd;clip-rule:evenodd;stroke-linejoin:round;stroke-miterlimit:2;"><g id="Mid-Hill" serif:id="Mid Hill"><path d="M1976.69,890.362c-0,0 -1063.45,-146.599 -1416.69,340l1416.69,20l-0,-360Z" style="fill:url(#_Linear1);"/><path d="M1349.18,909.819l-40.355,-0l47.081,-179.457l47.08,179.457l-40.355,-0l0,59.819l-13.451,-0l-0,-59.819Z" style="fill:#5434e4;"/><clipPath id="_clip2"><path d="M1349.18,909.819l-40.355,-0l47.081,-179.457l47.08,179.457l-40.355,-0l0,59.819l-13.451,-0l-0,-59.819Z"/></clipPath><g clip-path="url(#_clip2)"><path d="M1357.58,972.961l3.126,-63.142l-11.533,-19.94l10.088,-23.263l-13.451,-13.293l16.814,-29.909l-11.795,-19.94l11.795,-16.616l-10.088,-29.909l6.725,-23.263l-6.725,-13.293l-50.443,192.749l43.717,59.819l11.77,-0Z" style="fill:#240094;"/><path d="M1381.12,914.804l13.452,-13.293l-16.815,-13.293l10.089,-19.94l-21.859,-21.601l10.089,-26.586l-10.089,-16.617l3.363,-19.939l-10.089,-19.94l3.363,-7.596l-5.044,-7.359l3.363,-16.616l53.806,112.991l-3.363,69.789l-30.266,-0Z" style="fill:#b791ff;"/></g><path d="M1504.46,955l-43.85,-0l51.159,-195l51.158,195l-43.85,-0l-0,65l-14.617,0l0,-65Z" style="fill:#5434e4;"/><clipPath id="_clip3"><path d="M1504.46,955l-43.85,-0l51.159,-195l51.158,195l-43.85,-0l-0,65l-14.617,0l0,-65Z"/></clipPath><g clip-path="url(#_clip3)"><path d="M1513.6,1023.61l3.397,-68.611l-12.533,-21.667l10.963,-25.277l-14.617,-14.445l18.271,-32.5l-12.817,-21.667l12.817,-18.055l-10.963,-32.5l7.309,-25.278l-7.309,-14.444l-54.812,209.444l47.504,65l12.79,0Z" style="fill:#240094;"/><path d="M1539.17,960.417l14.616,-14.445l-18.27,-14.444l10.962,-21.667l-23.752,-23.472l10.963,-28.889l-10.963,-18.056l3.654,-21.666l-10.962,-21.667l3.654,-8.254l-5.481,-7.996l3.654,-18.055l58.466,122.777l-3.654,75.834l-32.887,-0Z" style="fill:#b791ff;"/></g><path d="M1594.73,866.61l-36.017,-0l42.02,-160.171l42.021,160.171l-36.018,-0l0,53.39l-12.006,-0l0,-53.39Z" style="fill:#5434e4;"/><clipPath id="_clip4"><path d="M1594.73,866.61l-36.017,-0l42.02,-160.171l42.021,160.171l-36.018,-0l0,53.39l-12.006,-0l0,-53.39Z"/></clipPath><g clip-path="url(#_clip4)"><path d="M1602.24,922.966l2.79,-56.356l-10.294,-17.797l9.005,-20.763l-12.006,-11.864l15.007,-26.695l-10.527,-17.797l10.527,-14.831l-9.004,-26.695l6.003,-20.763l-6.003,-11.864l-45.022,172.035l39.019,53.39l10.505,0Z" style="fill:#240094;"/><path d="M1623.25,871.059l12.006,-11.864l-15.007,-11.865l9.004,-17.797l-19.509,-19.279l9.004,-23.729l-9.004,-14.831l3.001,-17.797l-9.004,-17.797l3.001,-6.779l-4.502,-6.568l3.002,-14.831l48.023,100.848l-3.001,62.289l-27.014,-0Z" style="fill:#b791ff;"/></g></g><defs><linearGradient id="_Linear1" x1="0" y1="0" x2="1" y2="0" gradientUnits="userSpaceOnUse" gradientTransform="matrix(-8.31296e-14,290,293.457,8.21503e-14,1430.25,880.362)"><stop offset="0" style="stop-color:#5434e4;stop-opacity:1"/><stop offset="1" style="stop-color:#14006d;stop-opacity:1"/></linearGradient></defs></svg>