<?xml version="1.0" encoding="UTF-8" standalone="no"?><!DOCTYPE svg PUBLIC "-//W3C//DTD SVG 1.1//EN" "http://www.w3.org/Graphics/SVG/1.1/DTD/svg11.dtd"><svg width="100%" height="100%" viewBox="0 0 1920 1080" version="1.1" xmlns="http://www.w3.org/2000/svg" xmlns:xlink="http://www.w3.org/1999/xlink" xml:space="preserve" xmlns:serif="http://www.serif.com/" style="fill-rule:evenodd;clip-rule:evenodd;stroke-linejoin:round;stroke-miterlimit:2;"><g id="Front-Hill" serif:id="Front Hill"><path d="M-80.955,800c-0,0 1051.64,-146.6 1400.95,340l-1400.95,20l-0,-360Z" style="fill:url(#_Linear1);"/><path d="M489.434,750l-120.082,0l140.095,-540l140.096,540l-120.082,0l0,180l-40.027,0l-0,-180Z" style="fill:#5434e4;"/><clipPath id="_clip2"><path d="M489.434,750l-120.082,0l140.095,-540l140.096,540l-120.082,0l0,180l-40.027,0l-0,-180Z"/></clipPath><g clip-path="url(#_clip2)"><path d="M514.451,940l9.303,-190l-34.32,-60l30.02,-70l-40.027,-40l50.034,-90l-35.098,-60l35.098,-50l-30.02,-90l20.013,-70l-20.013,-40l-150.103,580l130.089,180l35.024,0Z" style="fill:#240094;"/><path d="M584.499,765l40.027,-40l-50.034,-40l30.02,-60l-65.044,-65l30.02,-80l-30.02,-50l10.007,-60l-30.021,-60l10.007,-22.857l-15.01,-22.143l10.007,-50l160.109,340l-10.007,210l-90.061,0Z" style="fill:#b791ff;"/></g></g><defs><linearGradient id="_Linear1" x1="0" y1="0" x2="1" y2="0" gradientUnits="userSpaceOnUse" gradientTransform="matrix(8.22064e-14,290,-290.198,8.21503e-14,459.413,790)"><stop offset="0" style="stop-color:#5434e4;stop-opacity:1"/><stop offset="1" style="stop-color:#14006d;stop-opacity:1"/></linearGradient></defs></svg>