<?xml version="1.0" encoding="UTF-8" standalone="no"?><!DOCTYPE svg PUBLIC "-//W3C//DTD SVG 1.1//EN" "http://www.w3.org/Graphics/SVG/1.1/DTD/svg11.dtd"><svg width="100%" height="100%" viewBox="0 0 1920 1080" version="1.1" xmlns="http://www.w3.org/2000/svg" xmlns:xlink="http://www.w3.org/1999/xlink" xml:space="preserve" xmlns:serif="http://www.serif.com/" style="fill-rule:evenodd;clip-rule:evenodd;stroke-linejoin:round;stroke-miterlimit:2;"><g id="Back-Mountains" serif:id="Back Mountains"><path d="M1135,320l365,620l-730,0l365,-620Z" style="fill:url(#_Linear1);"/><clipPath id="_clip2"><path d="M1135,320l365,620l-730,0l365,-620Z"/></clipPath><g clip-path="url(#_clip2)"><path d="M1130,260l0,240l110,30l-30,140l120,90l10,110l110,20l0,30l50,40l20,-50l-390,-650Z" style="fill:#8e7ae5;"/></g><path d="M1440,562.236l245,416.165l-490,-0l245,-416.165Z" style="fill:url(#_Linear3);"/><clipPath id="_clip4"><path d="M1440,562.236l245,416.165l-490,-0l245,-416.165Z"/></clipPath><g clip-path="url(#_clip4)"><path d="M1436.64,521.963l3.356,108.037l40,30l0,46.62l29.15,13.38l-29.15,50.319l60,9.681l-9.757,40l49.757,10.339l-28.385,69.661l133.385,0l-248.356,-378.037Z" style="fill:#8e7ae5;"/></g><path d="M820,562.236l170,288.768l-340,-0l170,-288.768Z" style="fill:url(#_Linear5);"/><clipPath id="_clip6"><path d="M820,562.236l170,288.768l-340,-0l170,-288.768Z"/></clipPath><g clip-path="url(#_clip6)"><path d="M817.671,534.291l35.57,105.709l-33.241,48.02l60,11.98l-4.514,70.319l64.514,21.497l-0,48.184l33.33,0l6.67,20l19.315,-22.969l-181.644,-302.74Z" style="fill:#8e7ae5;"/></g></g><defs><linearGradient id="_Linear1" x1="0" y1="0" x2="1" y2="0" gradientUnits="userSpaceOnUse" gradientTransform="matrix(4.28355e-14,472.257,-151.214,1.33779e-13,1051.57,337.465)"><stop offset="0" style="stop-color:#5434e4;stop-opacity:1"/><stop offset="1" style="stop-color:#14006d;stop-opacity:1"/></linearGradient><linearGradient id="_Linear3" x1="0" y1="0" x2="1" y2="0" gradientUnits="userSpaceOnUse" gradientTransform="matrix(2.87526e-14,316.994,-101.5,8.97972e-14,1384,573.96)"><stop offset="0" style="stop-color:#5434e4;stop-opacity:1"/><stop offset="1" style="stop-color:#14006d;stop-opacity:1"/></linearGradient><linearGradient id="_Linear5" x1="0" y1="0" x2="1" y2="0" gradientUnits="userSpaceOnUse" gradientTransform="matrix(1.99508e-14,219.955,-70.4286,6.23083e-14,781.143,570.371)"><stop offset="0" style="stop-color:#5434e4;stop-opacity:1"/><stop offset="1" style="stop-color:#14006d;stop-opacity:1"/></linearGradient></defs></svg>