<?xml version="1.0" encoding="UTF-8" standalone="no"?><!DOCTYPE svg PUBLIC "-//W3C//DTD SVG 1.1//EN" "http://www.w3.org/Graphics/SVG/1.1/DTD/svg11.dtd"><svg width="100%" height="100%" viewBox="0 0 1920 1080" version="1.1" xmlns="http://www.w3.org/2000/svg" xmlns:xlink="http://www.w3.org/1999/xlink" xml:space="preserve" xmlns:serif="http://www.serif.com/" style="fill-rule:evenodd;clip-rule:evenodd;stroke-linejoin:round;stroke-miterlimit:2;"><g id="Shooting-Stars" serif:id="Shooting Stars"><path d="M1120.65,274.362c-1.894,0.657 -3.966,-0.347 -4.624,-2.242c-0.657,-1.894 0.347,-3.966 2.242,-4.624c-0,0 24.505,-8.041 62.885,-20.787c18.203,-6.045 39.526,-13.132 62.826,-20.959c25.948,-8.718 54.35,-18.316 83.645,-28.297c145.452,-49.552 313.206,-107.453 313.206,-107.453c0,-0 -167.559,58.461 -312.44,109.661c-29.18,10.313 -57.422,20.371 -83.192,29.602c-23.14,8.288 -44.269,15.932 -62.304,22.463c-38.025,13.769 -62.244,22.636 -62.244,22.636Z" style="fill:#766a90;"/><path d="M728.013,151.851c-1.894,0.658 -3.966,-0.347 -4.624,-2.241c-0.657,-1.895 0.347,-3.967 2.242,-4.625c-0,0 24.505,-8.041 62.885,-20.787c18.203,-6.045 39.526,-13.132 62.826,-20.959c25.948,-8.718 54.35,-18.316 83.645,-28.296c145.452,-49.553 313.206,-107.454 313.206,-107.454c0,0 -167.559,58.461 -312.44,109.662c-29.18,10.312 -57.422,20.371 -83.192,29.601c-23.14,8.288 -44.269,15.933 -62.304,22.463c-38.025,13.769 -62.244,22.636 -62.244,22.636Z" style="fill:#766a90;"/></g></svg>