<?xml version="1.0" encoding="UTF-8" standalone="no"?><!DOCTYPE svg PUBLIC "-//W3C//DTD SVG 1.1//EN" "http://www.w3.org/Graphics/SVG/1.1/DTD/svg11.dtd"><svg width="100%" height="100%" viewBox="0 0 1920 1080" version="1.1" xmlns="http://www.w3.org/2000/svg" xmlns:xlink="http://www.w3.org/1999/xlink" xml:space="preserve" xmlns:serif="http://www.serif.com/" style="fill-rule:evenodd;clip-rule:evenodd;stroke-linejoin:round;stroke-miterlimit:2;"><g id="Background-Sky" serif:id="Background Sky"><rect x="-83.108" y="-70.881" width="2060" height="1200" style="fill:url(#_Linear1);"/><g><path d="M1291.55,206.598l5.312,16.373l15.577,5.584l-15.577,5.583l-5.312,16.373l-5.312,-16.373l-15.578,-5.583l15.578,-5.584l5.312,-16.373Z" style="fill:#fff6da;fill-opacity:0.38;"/><path d="M1738.79,508.966l-16.373,5.312l-5.583,15.578l-5.584,-15.578l-16.373,-5.312l16.373,-5.312l5.584,-15.578l5.583,15.578l16.373,5.312Z" style="fill:#fff6da;fill-opacity:0.38;"/><path d="M407.26,189.11l16.373,-5.311l5.584,-15.578l5.583,15.578l16.373,5.311l-16.373,5.312l-5.583,15.578l-5.584,-15.578l-16.373,-5.312Z" style="fill:#fff6da;fill-opacity:0.38;"/><path d="M680.327,519.11l16.374,-5.311l5.583,-15.578l5.583,15.578l16.373,5.311l-16.373,5.312l-5.583,15.578l-5.583,-15.578l-16.374,-5.312Z" style="fill:#fff6da;fill-opacity:0.38;"/><path d="M878.156,228.555l-5.311,-16.374l-15.578,-5.583l15.578,-5.583l5.311,-16.374l5.312,16.374l15.578,5.583l-15.578,5.583l-5.312,16.374Z" style="fill:#fff6da;fill-opacity:0.38;"/><path d="M980.89,381.902l5.311,16.373l15.578,5.584l-15.578,5.583l-5.311,16.373l-5.312,-16.373l-15.578,-5.583l15.578,-5.584l5.312,-16.373Z" style="fill:#fff6da;fill-opacity:0.38;"/><path d="M50.808,485.205l5.312,16.374l15.578,5.583l-15.578,5.583l-5.312,16.374l-5.311,-16.374l-15.578,-5.583l15.578,-5.583l5.311,-16.374Z" style="fill:#fff6da;fill-opacity:0.38;"/><path d="M177.487,166.971l5.312,16.373l15.578,5.584l-15.578,5.583l-5.312,16.373l-5.312,-16.373l-15.577,-5.583l15.577,-5.584l5.312,-16.373Z" style="fill:#fff6da;fill-opacity:0.38;"/><path d="M1416.63,163.295l3.486,10.744l10.222,3.664l-10.222,3.663l-3.486,10.744l-3.485,-10.744l-10.222,-3.663l10.222,-3.664l3.485,-10.744Z" style="fill:#fff6da;fill-opacity:0.38;"/><path d="M1811.52,599.545l-10.744,3.485l-3.664,10.222l-3.663,-10.222l-10.744,-3.485l10.744,-3.486l3.663,-10.222l3.664,10.222l10.744,3.486Z" style="fill:#fff6da;fill-opacity:0.38;"/><path d="M378.444,66.992l10.744,-3.485l3.664,-10.222l3.664,10.222l10.744,3.485l-10.744,3.486l-3.664,10.222l-3.664,-10.222l-10.744,-3.486Z" style="fill:#fff6da;fill-opacity:0.38;"/><path d="M651.511,396.992l10.745,-3.485l3.663,-10.222l3.664,10.222l10.744,3.485l-10.744,3.486l-3.664,10.222l-3.663,-10.222l-10.745,-3.486Z" style="fill:#fff6da;fill-opacity:0.38;"/><path d="M1337.04,439.523l10.744,-3.486l3.664,-10.222l3.663,10.222l10.745,3.486l-10.745,3.485l-3.663,10.222l-3.664,-10.222l-10.744,-3.485Z" style="fill:#fff6da;fill-opacity:0.38;"/><path d="M1237.78,73.816l-10.744,3.485l-3.664,10.222l-3.663,-10.222l-10.745,-3.485l10.745,-3.486l3.663,-10.222l3.664,10.222l10.744,3.486Z" style="fill:#fff6da;fill-opacity:0.38;"/><path d="M750.769,331.858l-3.486,-10.744l-10.222,-3.664l10.222,-3.663l3.486,-10.745l3.486,10.745l10.222,3.663l-10.222,3.664l-3.486,10.744Z" style="fill:#fff6da;fill-opacity:0.38;"/><path d="M1074.28,236.068l3.486,10.744l10.222,3.664l-10.222,3.663l-3.486,10.745l-3.485,-10.745l-10.222,-3.663l10.222,-3.664l3.485,-10.744Z" style="fill:#fff6da;fill-opacity:0.38;"/><path d="M178.196,381.902l3.486,10.744l10.222,3.664l-10.222,3.663l-3.486,10.745l-3.486,-10.745l-10.222,-3.663l10.222,-3.664l3.486,-10.744Z" style="fill:#fff6da;fill-opacity:0.38;"/><path d="M243.848,128.5l3.485,10.744l10.222,3.664l-10.222,3.663l-3.485,10.745l-3.486,-10.745l-10.222,-3.663l10.222,-3.664l3.486,-10.744Z" style="fill:#fff6da;fill-opacity:0.38;"/><path d="M1389.22,287.922l3.486,10.745l10.222,3.663l-10.222,3.664l-3.486,10.744l-3.485,-10.744l-10.222,-3.664l10.222,-3.663l3.485,-10.745Z" style="fill:#fff6da;fill-opacity:0.38;"/><path d="M1638.68,565.507l-10.745,3.486l-3.663,10.222l-3.664,-10.222l-10.744,-3.486l10.744,-3.486l3.664,-10.222l3.663,10.222l10.745,3.486Z" style="fill:#fff6da;fill-opacity:0.38;"/><path d="M503.925,129.276l10.744,-3.486l3.664,-10.222l3.663,10.222l10.745,3.486l-10.745,3.485l-3.663,10.222l-3.664,-10.222l-10.744,-3.485Z" style="fill:#fff6da;fill-opacity:0.38;"/><path d="M776.992,459.276l10.744,-3.486l3.664,-10.222l3.664,10.222l10.744,3.486l-10.744,3.485l-3.664,10.222l-3.664,-10.222l-10.744,-3.485Z" style="fill:#fff6da;fill-opacity:0.38;"/><path d="M821.323,86.257l-3.486,-10.745l-10.221,-3.663l10.221,-3.664l3.486,-10.744l3.486,10.744l10.222,3.664l-10.222,3.663l-3.486,10.745Z" style="fill:#fff6da;fill-opacity:0.38;"/><path d="M107.642,627.503l3.485,10.745l10.222,3.663l-10.222,3.664l-3.485,10.744l-3.486,-10.744l-10.222,-3.664l10.222,-3.663l3.486,-10.745Z" style="fill:#fff6da;fill-opacity:0.38;"/><path d="M216.433,253.128l3.485,10.744l10.222,3.663l-10.222,3.664l-3.485,10.744l-3.486,-10.744l-10.222,-3.664l10.222,-3.663l3.486,-10.744Z" style="fill:#fff6da;fill-opacity:0.38;"/></g></g><defs><linearGradient id="_Linear1" x1="0" y1="0" x2="1" y2="0" gradientUnits="userSpaceOnUse" gradientTransform="matrix(2060,-600,600,2060,-83.1082,1009.12)"><stop offset="0" style="stop-color:#040016;stop-opacity:1"/><stop offset="1" style="stop-color:#3a23a4;stop-opacity:1"/></linearGradient></defs></svg>