<?xml version="1.0" encoding="UTF-8" standalone="no"?><!DOCTYPE svg PUBLIC "-//W3C//DTD SVG 1.1//EN" "http://www.w3.org/Graphics/SVG/1.1/DTD/svg11.dtd"><svg width="100%" height="100%" viewBox="0 0 1920 1080" version="1.1" xmlns="http://www.w3.org/2000/svg" xmlns:xlink="http://www.w3.org/1999/xlink" xml:space="preserve" xmlns:serif="http://www.serif.com/" style="fill-rule:evenodd;clip-rule:evenodd;stroke-linejoin:round;stroke-miterlimit:2;"><g id="Mid-Trees" serif:id="Mid Trees"><path d="M190,740l-60,0l70,-270l70,270l-60,0l0,90l-20,0l0,-90Z" style="fill:#5434e4;"/><clipPath id="_clip1"><path d="M190,740l-60,0l70,-270l70,270l-60,0l0,90l-20,0l0,-90Z"/></clipPath><g clip-path="url(#_clip1)"><path d="M202.5,835l4.648,-95l-17.148,-30l15,-35l-20,-20l25,-45l-17.537,-30l17.537,-25l-15,-45l10,-35l-10,-20l-75,290l65,90l17.5,0Z" style="fill:#240094;"/><path d="M237.5,747.5l20,-20l-25,-20l15,-30l-32.5,-32.5l15,-40l-15,-25l5,-30l-15,-30l5,-11.429l-7.5,-11.071l5,-25l80,170l-5,105l-45,0Z" style="fill:#b791ff;"/></g><path d="M317.143,695.714l-77.143,0l90,-347.143l90,347.143l-77.143,0l0,115.715l-25.714,-0l-0,-115.715Z" style="fill:#5434e4;"/><clipPath id="_clip2"><path d="M317.143,695.714l-77.143,0l90,-347.143l90,347.143l-77.143,0l0,115.715l-25.714,-0l-0,-115.715Z"/></clipPath><g clip-path="url(#_clip2)"><path d="M333.214,817.857l5.977,-122.143l-22.048,-38.571l19.286,-45l-25.715,-25.714l32.143,-57.858l-22.548,-38.571l22.548,-32.143l-19.286,-57.857l12.858,-45l-12.858,-25.714l-96.428,372.857l83.571,115.714l22.5,0Z" style="fill:#240094;"/><path d="M378.214,705.357l25.715,-25.714l-32.143,-25.714l19.285,-38.572l-41.785,-41.786l19.285,-51.428l-19.285,-32.143l6.428,-38.571l-19.285,-38.572l6.428,-14.694l-9.643,-14.234l6.429,-32.143l102.857,218.571l-6.429,135l-57.857,0Z" style="fill:#b791ff;"/></g></g></svg>